<svg width="18" height="18" viewBox="0 0 18 18" fill="none" xmlns="http://www.w3.org/2000/svg">
<path d="M9 4.5C9.39782 4.5 9.77936 4.34196 10.0607 4.06066C10.342 3.77936 10.5 3.39782 10.5 3C10.5 2.715 10.425 2.4525 10.2825 2.2275L9 0L7.7175 2.2275C7.575 2.4525 7.5 2.715 7.5 3C7.5 3.825 8.175 4.5 9 4.5ZM13.5 6.75H9.75V5.25H8.25V6.75H4.5C3.255 6.75 2.25 7.755 2.25 9V15.75C2.25 16.1625 2.5875 16.5 3 16.5H15C15.4125 16.5 15.75 16.1625 15.75 15.75V9C15.75 7.755 14.745 6.75 13.5 6.75ZM14.25 15H3.75V12.75C4.425 12.7425 5.07 12.4725 5.55 11.9925L6.3675 11.19L7.17 11.9925C8.1525 12.975 9.8625 12.9675 10.8375 11.9925L11.6475 11.19L12.45 11.9925C12.93 12.4725 13.575 12.7425 14.25 12.75V15ZM14.25 11.625C13.8675 11.6175 13.5075 11.475 13.2375 11.1975L11.64 9.6L10.035 11.1975C9.48 11.7525 8.5125 11.7525 7.9575 11.1975L6.36 9.6L4.755 11.1975C4.4925 11.4675 4.1325 11.6175 3.75 11.625V9C3.75 8.5875 4.0875 8.25 4.5 8.25H13.5C13.9125 8.25 14.25 8.5875 14.25 9V11.625Z" fill="#212121" fill-opacity="0.8"/>
</svg>
