<svg width="18" height="18" viewBox="0 0 18 18" fill="none" xmlns="http://www.w3.org/2000/svg">
<path d="M14.205 14.4675H3.135C3.06075 14.4675 3 14.5283 3 14.6025V15.615C3 15.6893 3.06075 15.75 3.135 15.75H14.205C14.2793 15.75 14.34 15.6893 14.34 15.615V14.6025C14.34 14.5283 14.2793 14.4675 14.205 14.4675ZM14.205 2.25H3.135C3.06075 2.25 3 2.31075 3 2.385V3.3975C3 3.47175 3.06075 3.5325 3.135 3.5325H14.205C14.2793 3.5325 14.34 3.47175 14.34 3.3975V2.385C14.34 2.31075 14.2793 2.25 14.205 2.25ZM10.3373 6.73875C10.4385 6.73875 10.4959 6.62063 10.4334 6.54131L8.73244 4.38806C8.72118 4.37349 8.70673 4.3617 8.6902 4.35358C8.67368 4.34546 8.65551 4.34124 8.63709 4.34124C8.61868 4.34124 8.60051 4.34546 8.58398 4.35358C8.56746 4.3617 8.55301 4.37349 8.54175 4.38806L6.84075 6.54131C6.82658 6.55933 6.81777 6.58097 6.81533 6.60376C6.81289 6.62655 6.81692 6.64957 6.82696 6.67018C6.837 6.69079 6.85264 6.70815 6.87209 6.72027C6.89154 6.7324 6.91402 6.73881 6.93694 6.73875H8.0625V11.2613H7.00275C6.9015 11.2613 6.84413 11.3794 6.90656 11.4587L8.60756 13.6103C8.6565 13.6727 8.751 13.6727 8.79825 13.6103L10.4993 11.4587C10.5617 11.3794 10.506 11.2613 10.4031 11.2613H9.2775V6.73875H10.3373Z" fill="#212121" fill-opacity="0.8"/>
</svg>
